<?xml version="1.0" encoding="utf-8"?>
<!-- Generator: Adobe Illustrator 16.0.0, SVG Export Plug-In . SVG Version: 6.00 Build 0)  -->
<!DOCTYPE svg PUBLIC "-//W3C//DTD SVG 1.1//EN" "http://www.w3.org/Graphics/SVG/1.1/DTD/svg11.dtd">
<svg version="1.1" xmlns="http://www.w3.org/2000/svg" xmlns:xlink="http://www.w3.org/1999/xlink" x="0px" y="0px" width="1400px"
	 height="980px" viewBox="0 0 1400 980" enable-background="new 0 0 1400 980" xml:space="preserve">
<g id="BACKGROUND">
	<rect fill="#060606" width="1400" height="980"/>
	<g opacity="0.7">
		<polygon opacity="0.6" fill="#474646" points="1403,60.167 287,980 992,980 1403,157 		"/>
		<polygon opacity="0.3" fill="#FF9D00" points="1014.232,-9 600.213,983 917,983 1038.025,-9 		"/>
		<polygon opacity="0.6" fill="#474646" points="0,60.167 1116,980 411,980 0,157 		"/>
		<polygon opacity="0.3" fill="#FF9D00" points="523.232,-9 109.213,983 426,983 547.025,-9 		"/>
	</g>
</g>
<g id="OBJECT">
	<g>
		<defs>
			<rect id="SVGID_1_" width="1400" height="980"/>
		</defs>
		<clipPath id="SVGID_2_">
			<use xlink:href="#SVGID_1_"  overflow="visible"/>
		</clipPath>
		<g clip-path="url(#SVGID_2_)">
			<g>
				<g>
					<path fill="#DDD3CE" d="M1163.245,732.621c10.451,33.643-23.716,57.424-74.62,68.094
						c-50.903,10.668-104.686-4.578-110.708-29.9c-6.032-25.318,1.367-58.275-1.324-83.209
						c-2.692-24.936-33.655-86.239-54.184-151.56c-18.066-57.501-31.902-159.194-34.947-182.708
						c-0.412-3.199-0.633-4.948-0.633-4.948c104.586-44.258,218.062-36.258,218.062-36.258
						c33.604,91.339,29.072,308.993,33.255,341.789C1142.329,686.715,1152.796,698.979,1163.245,732.621z"/>
					<path fill="#AFA39E" d="M1104.891,312.131c-81.023,61.165-217.429,41.206-217.429,41.206c-0.412-3.199-0.633-4.948-0.633-4.948
						C991.415,304.131,1104.891,312.131,1104.891,312.131z"/>
					<path fill="#EFB961" d="M1122.42,726.86c-28.45,14.729-91.95,17.97-109.9,16.02c-23.899-2.59-21.34-42.77-28.05-78.14
						s-28.84-76.98-43.87-124c-15.02-47.03-25.33-133.62-25.33-133.62c4.101-0.08,8.181-0.2,12.221-0.37
						c95.939-3.81,174.399-29.93,174.399-29.93c18.221,80.01,19.5,226.331,19.99,255.75c0.5,29.43,9.561,45.01,14.351,75.66
						C1137.42,715.85,1131.84,721.99,1122.42,726.86z"/>
					<path fill="#FEFFFF" d="M915.268,407.119c0,0,103.12,10.643,186.622-30.296c0,0-1.152-14.03-2.743-15.764
						c-1.592-1.734-8.489-5.855-11.433-5.297s-20.876,2.601-22.592,4.284c-1.718,1.683-18.905,7.656-23.24,9.835
						c-4.339,2.179-20.177-6.203-29.271-0.481c-9.094,5.72-30.053,9.694-30.053,9.694s-16.876-3.109-22.503-0.584
						c-5.628,2.524-28.892,1.507-34.007,3.156C920.932,383.314,905.438,376.752,915.268,407.119z"/>
					<path fill="#DB9E45" d="M1122.42,726.86c-28.45,14.729-91.95,17.97-109.9,16.02c-23.899-2.59-21.34-42.77-28.05-78.14
						s-28.84-76.98-43.87-124c-15.02-47.03-25.33-133.62-25.33-133.62c4.101-0.08,8.181-0.2,12.221-0.37
						c11.17,43.37,40.79,153.59,61.51,186.7C1009.56,626.3,1089.75,698.2,1122.42,726.86z"/>
					<circle fill="#FEFFFF" cx="1032.751" cy="410.593" r="13.907"/>
					<circle fill="#FEFFFF" cx="1069.068" cy="418.432" r="6.068"/>
					<circle fill="#FEFFFF" cx="1003.859" cy="446.5" r="8"/>
					<circle fill="#FEFFFF" cx="968" cy="429.5" r="5"/>
					<circle fill="none" stroke="#FEFFFF" stroke-miterlimit="10" cx="1040.752" cy="446.5" r="8"/>
					<circle fill="none" stroke="#FEFFFF" stroke-miterlimit="10" cx="958.5" cy="451" r="4.5"/>
					<circle fill="none" stroke="#FEFFFF" stroke-miterlimit="10" cx="1091.407" cy="399.093" r="2.407"/>
					<path fill="none" stroke="#060606" stroke-width="2" stroke-miterlimit="10" d="M903.236,355.001
						c0,0,100.393-36.429,187.578-33.215"/>
					<path fill="none" stroke="#060606" stroke-width="2" stroke-miterlimit="10" d="M976.138,759.986
						c0,0,114.419,33.111,184.641-34.938"/>
				</g>
				<path fill="#F15330" d="M1194.578,781.219c-30.164,1.612-67.857-20.588-75.219-20.402c-7.362,0.186-71.468,6.94-102.275,0.789
					c-30.809-6.152-49.693-20.384-52.098-29.5c-2.403-9.116,14.501-13.772,17.305-12.757c2.803,1.016,38.971,11.906,61.762,5.897
					s50.488-10.229,50.488-10.229s-51.247-7.806-67.725-5.218c-16.477,2.588-70.854,8.245-75.553-3.289
					c-4.698-11.534,0.37-27.561,2.17-28.441c1.801-0.882,62.506-21.37,76.258-24.312s48.864-12.659,48.864-12.659
					s-47.788-6.929-69.641-4.386c-21.853,2.544-55.374,11.972-61.3,7.134c-5.927-4.837-4.816-15.616-4.202-22.098
					s35.544-16.003,45.908-19.223s27.936-7.95,27.936-7.95s-53.592-1.146-59.353-2.488c-5.76-1.343-28.707,0.992-27.17-7.912
					s22.16-20.7,41.102-30.959c18.94-10.258,81.076-8.681,100.785-7.702s68.156,12.203,68.156,12.203s22.395,24.487,33.258,37.406
					l65.085,58.425c15.062,8.314,227.25,58.636,227.25,58.636l23.237,199.672C1489.607,911.855,1225.595,779.562,1194.578,781.219z"
					/>
				<path fill="none" stroke="#060606" stroke-width="2" stroke-miterlimit="10" d="M1017.257,594.575c0,0,13.743-4.425,45.743,0"/>
				<line fill="none" stroke="#060606" stroke-width="2" stroke-miterlimit="10" x1="1083" y1="640" x2="1116" y2="640"/>
				<line fill="none" stroke="#060606" stroke-width="2" stroke-miterlimit="10" x1="1089" y1="713.463" x2="1101.89" y2="718"/>
				<path fill="none" stroke="#060606" stroke-width="2" stroke-miterlimit="10" d="M1140.777,557.717c0,0,0.002,27.5-4.388,34.892"
					/>
				<path fill="none" stroke="#060606" stroke-width="2" stroke-miterlimit="10" d="M1144,617c0,0,0.641,14,0.32,17"/>
				<path fill="none" stroke="#060606" stroke-width="2" stroke-miterlimit="10" d="M1136.39,672c0,0,0.063,16.967-3.663,18.483"/>
				<path fill="none" stroke="#060606" stroke-width="2" stroke-miterlimit="10" d="M1122.42,726.86c0,0-0.58,12.927,0,16.533"/>
				<polyline fill="none" stroke="#060606" stroke-width="2" stroke-miterlimit="10" points="1249,664.727 1236.239,650.962 
					1261,686 				"/>
				<polyline fill="#EFB961" points="1298,664.727 1273,814.82 1318,837 1338,668.48 1301,664.727 				"/>
				<circle fill="#FEFFFF" cx="1306.5" cy="738.5" r="38.5"/>
				<circle fill="none" stroke="#060606" stroke-width="2" stroke-miterlimit="10" cx="1306.5" cy="738.5" r="30.5"/>
				<polyline fill="none" stroke="#060606" stroke-width="2" stroke-miterlimit="10" points="1299,718 1306.5,738.5 1315,728.326 
									"/>
			</g>
			<g>
				<g>
					<path fill="#F15330" d="M-119,841.28c0,0,55.776-43.056,97.526-74.368c41.75-31.312,101.767-60.017,138.298-83.501
						c36.531-23.483,116.118-92.634,130.469-110.899c0,0,25.134-42.698,31.223-58.355s73.067-31.314,114.819-30.444
						c41.752,0.87,59.149,4.349,55.67,48.711c-3.479,44.362-60.889,105.251-86.984,114.819s-67.848,52.19-80.895,68.717
						C268.079,732.486,196,819.483,128.904,907.324C74.811,978.144,58,983,58,983h-177V841.28z"/>
					<g>
						<path fill="#DDD3CE" d="M518.593,679.426c3.479,30.444-29.575,45.231-74.807,46.102c-45.231,0.87-88.724-20.876-89.768-43.492
							c-1.052-22.615,10.612-49.58,12.352-71.326s-14.787-79.156-21.746-138.305c-6.124-52.069-1.47-141.219-0.261-161.808
							c0.166-2.801,0.261-4.332,0.261-4.332c96.552-20.876,192.235,4.349,192.235,4.349
							c13.917,83.505-25.226,268.781-26.965,297.485C508.154,636.804,515.113,648.981,518.593,679.426z"/>
						<path fill="#AFA39E" d="M536.859,310.614c-79.156,39.143-192.496-0.017-192.496-0.017c0.166-2.801,0.261-4.332,0.261-4.332
							C441.177,285.389,536.859,310.614,536.859,310.614z"/>
						<path fill="#EFB961" d="M499.46,587.22c-4.35,25.23,0.87,40.021,0,66.98c-0.87,26.97-91.34,15.66-111.34,9.569
							c-20.01-6.09-11.31-40.01-11.31-71.329c0-31.311-12.18-70.45-17.4-113.081c-5.22-42.62,0-118.3,0-118.3
							c32.91,5.59,64.45,7.58,90.94,7.89c43.54,0.5,73.46-3.54,73.46-3.54c1.88,51.38-9.32,130.729-17.36,180.53
							C503.33,565.28,500.68,580.17,499.46,587.22z"/>
						<path fill="#DB9E45" d="M506.45,545.94c-20.49-86.351-45.06-150.311-56.1-176.99c43.54,0.5,73.46-3.54,73.46-3.54
							C525.69,416.79,514.49,496.14,506.45,545.94z"/>
						<path fill="#FEFFFF" d="M357.479,385.902c0,0,87.416,56.779,166.325,9.569c0,0,1.303-26.794,0.211-30.622
							c-1.091-3.828,0.436-54.157-9.016-36.844c-1.263,2.313-28.494-25.926-27.815,0.494c0.08,3.1-10.022,29.971-14.128,32.521
							c-4.107,2.552-16.427-18.856-25.227-11.342c-8.8,7.515-27.575,7.515-27.575,7.515s-14.081-11.864-19.36-9.123
							c-5.28,2.742-25.228-7.464-29.921-6.189C366.279,343.159,353.959,325.294,357.479,385.902z"/>
						<circle fill="#FEFFFF" cx="454.125" cy="416.375" r="18.125"/>
						<circle fill="#FEFFFF" cx="413.771" cy="416.812" r="10.688"/>
						<circle fill="#FEFFFF" cx="387.068" cy="423.432" r="4.068"/>
						<circle fill="#FEFFFF" cx="434.777" cy="463.277" r="5.777"/>
						<circle fill="#FEFFFF" cx="480.081" cy="436.604" r="7.104"/>
						<circle fill="#FEFFFF" cx="480.081" cy="340.604" r="7.104"/>
						<circle fill="#FEFFFF" cx="388.506" cy="401.506" r="9.506"/>
						<circle fill="#FEFFFF" cx="500.857" cy="410.648" r="9.143"/>
						<circle fill="#FEFFFF" cx="410.542" cy="451.166" r="7.458"/>
						<circle fill="#FEFFFF" cx="380.034" cy="450.742" r="7.034"/>
						<circle fill="none" stroke="#FEFFFF" stroke-miterlimit="10" cx="460.181" cy="457.222" r="6.056"/>
						<circle fill="none" stroke="#FEFFFF" stroke-miterlimit="10" cx="374.284" cy="422.716" r="8.716"/>
						<circle fill="none" stroke="#FEFFFF" stroke-miterlimit="10" cx="505.429" cy="436.003" r="4.571"/>
						<circle fill="none" stroke="#FEFFFF" stroke-miterlimit="10" cx="491.51" cy="467.603" r="4.325"/>
					</g>
					<path fill="#F15330" d="M282.856,508.824c0,0,26.199-20.045,44.465-25.147c18.266-5.102,56.102-6.407,70.454-6.407
						s51.399,21.356,50.489,31.554s-33.528,6.283-43.965,6.283c-10.438,0-49.719,18.266-49.719,18.266s10.076,22.449,5.761,43.189"
						/>
					<path fill="#F15330" d="M541.531,475.144c0,0-3.665-13.787-9.522-7.884c-3.475,3.5-7.542,27.26-12.562,28.54
						c-13.484,3.439-58.286,17.631-71.626,23.794c-13.34,6.165-0.769,20.081,13,22.092s50.342-3.55,67.605-9.009
						C545.688,527.218,558.537,501.948,541.531,475.144z"/>
					<path fill="#F15330" d="M538.979,524.251c0,0-1.749-13.494-7.634-8.533c-3.491,2.943-9.75,25.06-14.375,25.726
						c-12.423,1.786-54.009,10.344-66.605,14.733c-12.598,4.392-2.907,18.985,9.168,22.406c12.076,3.422,45.358,2.155,61.379-1.134
						C536.933,574.159,551.204,551.573,538.979,524.251z"/>
					<path fill="#F15330" d="M532.666,568.164c0,0-1.593-12.291-6.952-7.772c-3.18,2.68-8.881,22.825-13.094,23.431
						c-11.315,1.627-49.191,9.423-60.664,13.419c-11.475,4-2.649,17.292,8.35,20.408c10.999,3.115,41.312,1.963,55.904-1.033
						C530.803,613.62,543.801,593.049,532.666,568.164z"/>
					<path fill="#F15330" d="M526.389,602.412c0,0-3.498-9.21-6.81-4.729c-1.964,2.659-2.658,19.287-5.804,20.533
						c-8.449,3.344-36.299,16.355-44.433,21.562c-8.135,5.207,1.141,13.858,10.22,14.239c9.08,0.382,32.306-6.1,43.037-11.107
						S539.587,619.601,526.389,602.412z"/>
					<path fill="none" stroke="#060606" stroke-width="2" stroke-miterlimit="10" d="M354.579,533.373
						c0,0,16.132,39.711,2.276,73.169"/>
					
						<line fill="none" stroke="#060606" stroke-width="2" stroke-miterlimit="10" x1="524.452" y1="513.023" x2="524.606" y2="529.379"/>
					
						<line fill="none" stroke="#060606" stroke-width="2" stroke-miterlimit="10" x1="524.019" y1="562.853" x2="524.606" y2="576.324"/>
					<path fill="none" stroke="#060606" stroke-width="2" stroke-miterlimit="10" d="M450.35,528
						c0.983,2.667,16.245,13.182,15.886-1.084S450.35,528,450.35,528z"/>
					<path fill="none" stroke="#060606" stroke-width="2" stroke-miterlimit="10" d="M450.35,565.093
						c-0.961,1.898,15.893,14.719,14.317-2.24C464.061,556.328,454.377,557.139,450.35,565.093z"/>
					<path fill="none" stroke="#060606" stroke-width="2" stroke-miterlimit="10" d="M450.35,607.093
						c-0.961,1.898,15.893,14.719,14.317-2.24C464.061,598.328,454.377,599.139,450.35,607.093z"/>
					<path fill="none" stroke="#060606" stroke-width="2" stroke-miterlimit="10" d="M472.35,645.093
						c-0.961,1.898,15.893,14.719,14.317-2.24C486.061,636.328,476.377,637.139,472.35,645.093z"/>
					<line fill="none" stroke="#060606" stroke-width="2" stroke-miterlimit="10" x1="276" y1="671.392" x2="230" y2="720"/>
					<path fill="none" stroke="#060606" stroke-width="2" stroke-miterlimit="10" d="M354.579,669.274
						c0,0,98.008,50.097,162.964,2.117"/>
					<path fill="none" stroke="#060606" stroke-width="2" stroke-miterlimit="10" d="M356.855,314.375
						c0,0,94.936-7.376,167.164,1.812"/>
				</g>
				<path fill="#FEFFFF" d="M518.333,285.667c6.807-17.966,21.673-25.521,31.983-40.284c4.179-5.983,4.403-13.071-2.001-16.882
					c-6.747-4.016-13.217-0.303-14.5-8.561c-1.746-11.232,8.829-32.355-4.802-39.106c-19.431-9.625-25.55,13.06-26.682,27.003
					c-1.174,14.469-0.959,29.075-3.466,43.349c-1.901,10.824-9.266,20.322-9.88,31.197c-0.425,7.526,3.732,16.401,11.468,17.948
					c6.272,1.254,18.758-5.257,17.215-12.665"/>
				<path fill="#FEFFFF" d="M544.999,292.334c1.581-12.155,15.604-13.337,23.886-19.516c4.249-3.17,5.704-8.005,10.129-5.148
					c3.247,2.096,3.624,7.265,3.167,10.662c-2.555,18.996-26.686,13.877-39.183,14.669"/>
				<circle fill="none" stroke="#FEFFFF" stroke-miterlimit="10" cx="486.849" cy="249.269" r="6.769"/>
				<circle fill="none" stroke="#FEFFFF" stroke-miterlimit="10" cx="554.626" cy="206.098" r="5.098"/>
				<circle fill="none" stroke="#FEFFFF" stroke-miterlimit="10" cx="543.037" cy="166.873" r="3.191"/>
				<circle fill="none" stroke="#FEFFFF" stroke-miterlimit="10" cx="499.836" cy="157" r="4"/>
			</g>
			<g>
				<g>
					<g>
						<path fill="#DDD3CE" d="M772.574,619.647c-1.758,38.834-46.134,50.718-102.967,42.721
							c-56.833-7.998-106.945-43.977-103.708-72.515c3.225-28.54,23.253-59.975,29.801-86.864s-2.62-102.122,0.545-177.613
							c2.791-66.453,26.53-177.19,32.181-202.738c0.77-3.476,1.197-5.374,1.197-5.374c125.137-6.753,239.923,44.067,239.923,44.067
							c0.658,107.397-85.594,331.615-93.541,367.222C768.062,564.16,774.332,580.812,772.574,619.647z"/>
						<path fill="#AFA39E" d="M869.548,161.333c-107.015,33.129-241.121-38.694-241.121-38.694c0.77-3.476,1.197-5.374,1.197-5.374
							C754.762,110.512,869.548,161.333,869.548,161.333z"/>
						<path fill="#EFB961" d="M842.346,227.35C840.535,242.09,837,258.51,834,275.8v0.02c-13,58.86-34.346,127.791-49.865,174.73
							c-7.721,23.33-14.022,41.23-16.933,49.76c-10.52,30.721-6.986,50.29-13.496,83.9c-6.51,33.6-117.568,1.26-141.408-10.39
							c-23.84-11.641-6.129-52.391,0.161-91.62c6.29-39.22-1.104-90.7,0.916-145.14c2.03-54.43,23.84-148.18,23.84-148.18
							C743.195,224.88,842.346,227.35,842.346,227.35z"/>
						<path fill="#DB9E45" d="M833.414,275.5L833,275.8v0.02c-12,58.86-33.846,127.791-49.365,174.73l-34.99-2.99L833.414,275.5z"/>
						<path fill="#FEFFFF" d="M637.138,188.88c0,0,103.047,49.682,205.057,38.475c0,0,4.061-14.995,3.059-17.391
							c-1.001-2.396-6.617-9.257-9.882-9.781c-3.263-0.523-22.645-5.122-25.054-4.018c-2.414,1.103-22.492,0.864-27.809,1.5
							c-5.317,0.637-18.617-13.997-30.201-11.467c-11.58,2.53-34.824-1.197-34.824-1.197s-18.461-46.639-25.021-44.822
							C681,143.355,661.927,128.005,656,127.799C650.07,127.593,638.314,153.677,637.138,188.88z"/>
					</g>
					<path fill="none" stroke="#060606" stroke-width="2" stroke-miterlimit="10" d="M569.449,573c0,0,79.051,93,190.801,60"/>
					<path fill="#F15330" d="M590.314,356.914c0,0-21.628,18.093-13.269,27.407c8.357,9.312,20.747,12.097,20.747,12.097
						l23.674,1.93c0,0,63.791,41.11,67.291,45.232c3.501,4.122-71.945-35.253-71.945-35.253s-48.167,10.277-43.877,26.438
						c4.288,16.164,17.773,23.256,17.773,23.256l16.42,8.078l13.51,15.878c0,0-30.711-14.38-36.972-8.177
						c-6.261,6.203-12.311,21.108-10.069,24.686c2.243,3.577,9.377,30.894,9.377,30.894s-12.599,13.361-8.688,24.231
						c3.909,10.869,40.519,42.625,54.088,47.568c13.568,4.943,78.044,40.89,94.419,51.815
						c16.374,10.925,32.065,46.616,45.014,57.263c12.947,10.647,113.457,322.918,113.457,322.918l263.058-37.507
						c0,0-259.146-384.752-270.083-403.548c-10.938-18.796-28.022-79.86-33.729-92.213c-5.708-12.35-29.224-81.111-29.224-81.111
						L801,452c0,0-65.52-51.187-75.895-59.705c-10.374-8.52-66.088-42.793-85.145-44.346
						C620.904,346.396,590.314,356.914,590.314,356.914z"/>
					
						<line fill="none" stroke="#060606" stroke-width="2" stroke-miterlimit="10" x1="688.757" y1="443.579" x2="717.651" y2="460.445"/>
					<line fill="none" stroke="#060606" stroke-width="2" stroke-miterlimit="10" x1="620.638" y1="481.977" x2="678" y2="508"/>
					
						<line fill="none" stroke="#060606" stroke-width="2" stroke-miterlimit="10" x1="582.974" y1="529.379" x2="649.319" y2="562"/>
					<path fill="none" stroke="#060606" stroke-width="2" stroke-miterlimit="10" d="M787.696,490.496
						c0,0-6.696,11.504-11.696,17.504"/>
					<path fill="none" stroke="#060606" stroke-width="2" stroke-miterlimit="10" d="M760.25,529.379c0,0-8.25,10-11.25,16.311"/>
					<path fill="none" stroke="#060606" stroke-width="2" stroke-miterlimit="10" d="M728,573c0,0-2.697,13-10.349,16"/>
					<line fill="none" stroke="#060606" stroke-width="2" stroke-miterlimit="10" x1="607" y1="430" x2="607" y2="444"/>
					
						<line fill="none" stroke="#060606" stroke-width="2" stroke-miterlimit="10" x1="620.638" y1="360" x2="616.146" y2="374.948"/>
					<path fill="none" stroke="#060606" stroke-width="2" stroke-miterlimit="10" d="M637.138,126.987
						c0,0,115.846,1.739,215.354,39.376"/>
					<ellipse fill="#FEFFFF" cx="763.75" cy="226" rx="11.25" ry="8.5"/>
					<ellipse fill="#FEFFFF" cx="704" cy="228.5" rx="8.5" ry="6"/>
					<circle fill="#FEFFFF" cx="685.25" cy="221.75" r="4.25"/>
					<ellipse fill="#FEFFFF" cx="660" cy="212.754" rx="4" ry="4.746"/>
					<ellipse fill="#FEFFFF" cx="737.388" cy="244" rx="3.888" ry="4.5"/>
					<ellipse fill="#FEFFFF" cx="811" cy="234" rx="5" ry="5.5"/>
					<ellipse fill="#FEFFFF" cx="714" cy="213.5" rx="10" ry="9"/>
					<ellipse fill="#FEFFFF" cx="643.5" cy="209" rx="3" ry="4.5"/>
					<ellipse fill="#FEFFFF" cx="668.5" cy="239.25" rx="4.5" ry="4.75"/>
					<ellipse fill="#FEFFFF" cx="717.25" cy="267.5" rx="10.25" ry="8"/>
					<ellipse fill="#FEFFFF" cx="787.75" cy="269.25" rx="7.75" ry="6.25"/>
					<ellipse fill="#FEFFFF" cx="791.625" cy="185.19" rx="3.875" ry="3.69"/>
					<ellipse fill="#FEFFFF" cx="722.375" cy="174.782" rx="5.125" ry="4.718"/>
					<ellipse fill="#FEFFFF" cx="687.375" cy="163.682" rx="2.125" ry="2.681"/>
					<ellipse fill="#FEFFFF" cx="821.75" cy="188.095" rx="5.75" ry="2.905"/>
					<ellipse fill="#FEFFFF" cx="791.25" cy="226" rx="8.25" ry="8.5"/>
					<circle fill="none" stroke="#FEFFFF" stroke-miterlimit="10" cx="760.375" cy="277.125" r="7.875"/>
					<circle fill="none" stroke="#FEFFFF" stroke-miterlimit="10" cx="677" cy="260.038" r="4"/>
					<circle fill="none" stroke="#FEFFFF" stroke-miterlimit="10" cx="639.388" cy="246.25" r="2.25"/>
					<circle fill="none" stroke="#FEFFFF" stroke-miterlimit="10" cx="652" cy="286.364" r="4"/>
					<circle fill="none" stroke="#FEFFFF" stroke-miterlimit="10" cx="791.25" cy="250.75" r="8.25"/>
					<circle fill="none" stroke="#FEFFFF" stroke-miterlimit="10" cx="801.5" cy="300.5" r="2"/>
					<circle fill="none" stroke="#FEFFFF" stroke-miterlimit="10" cx="745.388" cy="320.5" r="8"/>
					<circle fill="none" stroke="#FEFFFF" stroke-miterlimit="10" cx="692.25" cy="305.5" r="7"/>
				</g>
				<polygon fill="#CEA3A3" points="780,790.075 801.5,866.571 1025.829,804.162 983.592,713.463 				"/>
				<polygon fill="#CEA3A3" points="1144,980 842.35,980 829.86,898.43 824.01,860.26 1009.06,808.82 1025.83,804.16 				"/>
				<polygon fill="#BC8E8E" points="1009.06,808.82 829.86,898.43 824.01,860.26 				"/>
				<circle fill="none" stroke="#060606" stroke-width="2" stroke-miterlimit="10" cx="826.401" cy="805.419" r="9.401"/>
				<path fill="#FEFFFF" d="M635.666,70.334c7.116,8.783,11.508,18.839,16.817,28.596c3.135,5.76,10.233,10.714,14.368,3.275
					c3.513-6.32-0.497-13.898-2.351-19.871c-3.33-10.725-1.443-39.886-20.035-33.15c-2.599,0.941-4.654,3.24-7.614,3.05
					c-2.824-0.182-8.124-4.077-10.702-5.249c-7.843-3.568-14.621-9.482-22.614-12.483c-9.111-3.421-25.899-4.75-35.366-1.664
					c-17.265,5.626-4.27,21.653,5.501,28.996c7.793,5.856,15.912,9.945,24.592,14.446c6.199,3.214,14.105,5.403,19.418,10.223
					c7.635,6.926,12.457,19.766,23.834,21.08c2.464-6.265,4.985-18.35-0.516-23.248"/>
				<circle fill="none" stroke="#FEFFFF" stroke-miterlimit="10" cx="686.667" cy="86.666" r="5.667"/>
				<circle fill="none" stroke="#FEFFFF" stroke-miterlimit="10" cx="729.576" cy="122.223" r="5.576"/>
				<circle fill="none" stroke="#FEFFFF" stroke-miterlimit="10" cx="708.268" cy="132.065" r="4.268"/>
				<circle fill="none" stroke="#FEFFFF" stroke-miterlimit="10" cx="719.833" cy="92.5" r="5.833"/>
				<circle fill="none" stroke="#FEFFFF" stroke-miterlimit="10" cx="685.25" cy="55.917" r="4.25"/>
			</g>
			<circle fill="none" stroke="#F15330" stroke-width="2" stroke-miterlimit="10" cx="230.5" cy="212.5" r="21.5"/>
			<circle fill="none" stroke="#F15330" stroke-width="2" stroke-miterlimit="10" cx="268" cy="142.333" r="6"/>
			<circle fill="none" stroke="#F15330" stroke-width="2" stroke-miterlimit="10" cx="316.877" cy="201.877" r="10.877"/>
			<circle fill="none" stroke="#F15330" stroke-width="2" stroke-miterlimit="10" cx="155.61" cy="107.942" r="9.61"/>
			<circle fill="none" stroke="#F15330" stroke-width="2" stroke-miterlimit="10" cx="1181.284" cy="301.284" r="10.284"/>
			<circle fill="none" stroke="#F15330" stroke-width="2" stroke-miterlimit="10" cx="1219.831" cy="376.856" r="13.831"/>
			<circle fill="none" stroke="#F15330" stroke-width="2" stroke-miterlimit="10" cx="1277" cy="356.792" r="9"/>
			<circle fill="none" stroke="#F15330" stroke-width="2" stroke-miterlimit="10" cx="1240.688" cy="287.812" r="10.688"/>
			<circle fill="none" stroke="#F15330" stroke-width="2" stroke-miterlimit="10" cx="1340.5" cy="467" r="12.5"/>
		</g>
	</g>
</g>
</svg>
